# xmcd CD database file
#
# Track frame offsets:
#	150
#	33756
#	55915
#	73843
#	94710
#	116882
#	129472
#	138727
#	151041
#	167889
#	188011
#	206092
#	220436
#	248058
#
# Disc length: 3586 seconds
#
# Revision: 0
# Processed by: cddbd v1.4PL0 Copyright (c) Steve Scherf et al.
# Submitted via: Feurio! 1.64 - http://www.feurio.com
#
DISCID=ce0e000e
DTITLE=Various Artist - Peter Green Songbook - Vol. 2
DYEAR=1995
DGENRE=Blues
TTITLE0=Billy Sheehan - Oh Well
TTITLE1=Zoot Money - I Loved Another Woman
TTITLE2=Larry Astor - Whatcha Gonna Do
TTITLE3=Paul Jones, Pete Brown - Albatross
TTITLE4=Jennifer Ferguson - Closing My Eyes
TTITLE5=Ray Gomez - Lazy Poker Blues
TTITLE6=Ray Gomez - Evil Woman Blues
TTITLE7=Stu Hamm - Fleetwood Mac
TTITLE8=Mick Abrahms - The Same Way
TTITLE9=Damon Duewhite - Watch Out
TTITLE10=Mark Lembo - A Fool No More
TTITLE11=Ken Hensley - Hellhound On My Trail
TTITLE12=Jim McCarty - Drifting
TTITLE13=Dave Peverett - If You Be My Baby
EXTD=DDD-Seagull (Norwegen),AAD,95-(A Tribute To His Work In Two 
EXTD=Volumes)\r\nM. Inhoffen in stereoplay 11/95:Musiker wie Harvey 
EXTD=Mandel,\r\n Ian Anderson, Southside Johnny oder der kürzlich verstorbene 
EXTD=\r\nRory Gallagher erwecken "Black Magic Woman", Man Of The \r\nWorld" 
EXTD=oder den "Leaving Town Blues" wieder zu faszinierendem \r\nLeben, indem 
EXTD=sie ihre eigenen Persönlichkeiten mit einbringen."
EXTT0=
EXTT1=
EXTT2=
EXTT3=
EXTT4=
EXTT5=
EXTT6=
EXTT7=
EXTT8=
EXTT9=
EXTT10=
EXTT11=
EXTT12=
EXTT13=
PLAYORDER=
